<?xml version="1.0" standalone="no"?>
<!DOCTYPE svg PUBLIC "-//W3C//DTD SVG 20010904//EN"
 "http://www.w3.org/TR/2001/REC-SVG-20010904/DTD/svg10.dtd">
<svg version="1.0" xmlns="http://www.w3.org/2000/svg"
 width="1000.000000pt" height="1000.000000pt" viewBox="0 0 1000.000000 1000.000000"
 preserveAspectRatio="xMidYMid meet">
<metadata>
Created by potrace 1.11, written by Peter Selinger 2001-2013
</metadata>
<g transform="translate(0.000000,1000.000000) scale(0.100000,-0.100000)"
fill="#000000" stroke="none">
<path d="M0 5000 l0 -5000 5000 0 5000 0 0 5000 0 5000 -5000 0 -5000 0 0
-5000z m9920 0 l0 -4920 -4920 0 -4920 0 0 4920 0 4920 4920 0 4920 0 0 -4920z"/>
<path d="M1334 4341 c-2 -2 -4 -64 -4 -138 l0 -133 33 -1 c17 0 101 0 185 0
149 -1 152 -1 153 -22 0 -12 1 -323 2 -692 l2 -670 136 -2 136 -1 1 656 c0
361 1 674 1 694 l1 37 128 0 c70 -1 153 0 185 0 l57 1 0 138 0 137 -506 0
c-278 0 -508 -2 -510 -4z"/>
<path d="M3326 4340 c-2 -5 0 -1611 3 -1641 1 -15 17 -17 138 -15 l137 1 -1
382 0 382 29 36 c41 49 83 68 145 67 80 -1 133 -40 153 -112 6 -20 10 -190 10
-396 l0 -361 138 1 137 1 -1 375 c0 206 -3 393 -7 416 -17 113 -93 240 -175
293 -130 83 -306 81 -403 -5 -8 -8 -18 -14 -21 -14 -3 0 -5 123 -6 273 0 149
-1 283 -1 297 l-1 25 -136 0 c-75 0 -137 -2 -138 -5z"/>
<path d="M4940 3995 l0 -140 143 1 c78 1 147 2 152 3 10 1 15 270 5 272 -3 1
-71 2 -152 3 l-148 1 0 -140z m267 101 c6 -5 5 -197 -1 -203 -4 -4 -67 -5
-177 -4 l-57 1 0 105 -1 104 57 3 c70 4 173 0 179 -6z"/>
<path d="M2570 3879 c-76 -12 -93 -16 -150 -39 -123 -49 -251 -165 -308 -282
-120 -246 -72 -526 123 -711 115 -110 242 -160 405 -161 118 0 172 14 263 68
l56 34 -3 -28 c-2 -16 0 -34 4 -40 6 -10 104 -14 245 -11 l30 1 0 540 c0 397
-3 543 -12 548 -19 12 -251 6 -266 -7 -11 -9 -17 -8 -26 2 -6 8 -41 28 -79 45
-86 40 -189 55 -282 41z m218 -310 c58 -29 120 -92 148 -153 19 -44 22 -64 20
-146 -4 -113 -17 -142 -93 -217 -152 -149 -408 -101 -505 95 -19 40 -23 62
-22 142 0 85 4 100 28 142 49 85 140 151 226 164 19 3 36 7 38 8 8 8 123 -18
160 -35z"/>
<path d="M4940 3350 l0 -467 28 -39 c15 -21 48 -72 72 -111 25 -40 48 -73 51
-73 4 0 30 37 59 83 29 45 62 96 73 112 21 30 22 37 22 493 0 404 -2 463 -15
467 -8 2 -77 4 -152 3 l-138 -1 0 -467z m270 373 c1 -116 1 -672 0 -730 -1
-49 -2 -55 -12 -38 -6 11 -19 28 -29 38 -17 18 -18 18 -48 -23 l-30 -42 -29
46 -29 45 -31 -37 -30 -37 0 415 c0 228 4 417 8 420 5 3 59 5 119 5 l111 0 0
-62z m-149 -813 l23 -40 24 27 c13 16 27 35 32 43 7 12 11 12 29 -4 35 -32 34
-50 -7 -112 -22 -33 -45 -70 -52 -83 l-13 -25 -19 25 c-44 56 -98 151 -92 162
12 21 37 47 45 47 4 0 18 -18 30 -40z"/>
<path d="M4317 3802 c-16 -3 -17 -48 -17 -562 l0 -559 138 2 137 2 1 295 c1
182 6 311 13 337 28 104 121 189 216 196 l50 5 3 141 c2 109 0 141 -10 142
-60 5 -154 -23 -217 -65 l-51 -35 0 50 c0 47 -1 49 -27 50 -130 3 -222 3 -236
1z"/>
<path d="M5395 3800 c-2 -3 -4 -254 -3 -557 0 -507 1 -553 16 -557 9 -2 72 -4
139 -4 l122 0 3 317 c3 306 4 317 26 362 24 49 65 98 105 124 25 16 46 22 110
32 42 6 39 -5 39 153 0 44 -1 93 -1 108 l-1 29 -57 -9 c-82 -12 -116 -25 -173
-64 l-50 -34 0 52 0 53 -136 0 c-75 0 -137 -2 -139 -5z"/>
<path d="M4955 2423 c1 -93 0 -173 -2 -179 -2 -6 -38 -10 -93 -9 l-90 1 0
-128 c0 -95 3 -128 13 -129 6 -1 48 -2 92 -3 l80 -1 0 -430 0 -430 138 -2 137
-1 0 433 0 432 73 1 c39 0 81 0 92 1 19 1 20 7 19 119 -1 64 -2 122 -3 128 -1
6 -30 10 -78 9 -43 -1 -84 0 -90 3 -10 3 -13 48 -13 178 l0 174 -138 0 -138 0
1 -167z"/>
<path d="M2109 2566 c-2 -2 -32 -6 -65 -10 -253 -26 -516 -225 -634 -480 -70
-150 -94 -309 -71 -479 44 -331 292 -610 621 -700 57 -15 107 -20 210 -21 136
0 217 13 297 49 18 8 50 23 70 32 39 17 174 100 183 112 3 3 29 26 58 50 l52
43 -56 52 c-32 28 -78 70 -103 93 l-46 42 -30 -25 c-72 -59 -175 -120 -246
-144 -256 -89 -541 26 -673 271 -20 38 -39 76 -41 86 -2 10 -9 41 -15 68 -12
51 -14 157 -5 210 26 142 118 287 232 366 226 157 490 139 719 -48 61 -49 57
-49 117 9 16 15 55 51 87 79 l59 51 -33 33 c-39 38 -141 111 -211 152 -111 65
-246 103 -386 109 -47 2 -88 2 -90 0z"/>
<path d="M3075 2304 c-67 -14 -177 -63 -226 -101 -116 -89 -206 -228 -233
-357 -16 -74 -14 -220 3 -284 74 -274 331 -461 615 -447 203 10 335 88 487
289 37 48 44 63 33 69 -8 5 -69 28 -135 51 l-121 42 -66 -66 c-51 -51 -80 -71
-121 -85 -66 -22 -207 -22 -229 -1 -3 3 123 133 279 289 156 157 299 300 317
319 l32 34 -72 73 c-96 96 -198 154 -309 176 -61 12 -190 12 -254 -1z m195
-273 c21 -1 -5 -31 -175 -201 -109 -109 -201 -197 -204 -195 -11 11 -7 124 7
170 40 139 176 237 317 229 17 -1 41 -2 55 -3z"/>
<path d="M5925 2303 c-214 -44 -400 -221 -455 -432 -31 -117 -22 -268 21 -381
25 -65 99 -168 162 -224 117 -106 260 -157 425 -151 146 6 281 62 380 158 63
61 156 187 146 197 -5 5 -65 29 -134 53 l-125 44 -44 -49 c-78 -88 -151 -121
-260 -119 -36 0 -75 3 -86 5 -11 2 -24 5 -30 5 -5 1 133 144 308 319 174 174
317 322 317 327 0 20 -135 144 -195 180 -121 72 -283 98 -430 68z m211 -276
c2 -2 -86 -92 -196 -201 -222 -221 -217 -219 -206 -87 11 143 119 264 259 290
37 7 136 5 143 -2z"/>
<path d="M4297 2264 c-1 -1 -18 -5 -38 -8 -51 -8 -89 -23 -126 -52 l-32 -24
-3 27 -3 28 -135 0 -135 0 0 -562 0 -562 137 0 138 1 0 388 0 388 26 31 c45
53 122 78 189 60 43 -12 103 -65 120 -106 12 -29 15 -101 15 -399 l0 -363 138
0 137 0 -1 387 c0 213 -4 401 -7 418 -35 168 -143 295 -282 333 -37 9 -132 20
-138 15z"/>
<path d="M6670 1672 l0 -563 140 2 139 2 0 301 c1 166 5 315 10 332 33 115
111 185 220 200 l51 7 0 140 0 140 -64 -5 c-66 -6 -151 -41 -193 -80 l-23 -21
-1 39 c-1 21 -2 46 -3 54 -1 12 -25 15 -138 15 l-138 1 0 -564z"/>
</g>
</svg>
