<svg xmlns="http://www.w3.org/2000/svg" viewBox="0 0 128.04 72.08"><defs><style>.cls-1{fill:#036;}.cls-2{fill:#007d00;}</style></defs><title>About us</title><g id="Layer_2" data-name="Layer 2"><g id="Layer_1-2" data-name="Layer 1"><path class="cls-1" d="M89,26.66v9.85a7,7,0,0,0,2,4.89v3.35a2.59,2.59,0,1,0,5.17,0V40.2A2.59,2.59,0,0,0,95,38.05a1.83,1.83,0,0,1-.84-1.54V26.66a6.29,6.29,0,0,1,6.27-6.27h2.12a6.29,6.29,0,0,1,6.27,6.27v9.85a1.83,1.83,0,0,1-.84,1.54,2.53,2.53,0,0,0-1.15,2.14v9.49a3.06,3.06,0,0,0,1.7,2.72,75.52,75.52,0,0,1,13.51,8.65,2.19,2.19,0,0,1,.78,1.7v4.16H104.73a2.59,2.59,0,1,0,0,5.17h20.73A2.58,2.58,0,0,0,128,69.5V62.75a7.3,7.3,0,0,0-2.69-5.7,82.5,82.5,0,0,0-13.3-8.7v-7a7,7,0,0,0,2-4.89V26.63a11.46,11.46,0,0,0-11.45-11.45h-2.12A11.5,11.5,0,0,0,89,26.66Z"/><path class="cls-1" d="M2.59,72.08h21a2.59,2.59,0,1,0,0-5.17H5.17V62.75A2.23,2.23,0,0,1,6,61.05,73,73,0,0,1,19.47,52.4a3,3,0,0,0,1.7-2.72V40.2A2.59,2.59,0,0,0,20,38.05a1.83,1.83,0,0,1-.84-1.54V26.66a6.29,6.29,0,0,1,6.27-6.27h2.12a6.29,6.29,0,0,1,6.27,6.27v9.85A1.83,1.83,0,0,1,33,38.05a2.53,2.53,0,0,0-1.15,2.14V45A2.59,2.59,0,0,0,37,45V41.4a7,7,0,0,0,2-4.89V26.66A11.46,11.46,0,0,0,27.57,15.21H25.46A11.46,11.46,0,0,0,14,26.66v9.85a7,7,0,0,0,2,4.89v7a79.62,79.62,0,0,0-13.3,8.7A7.39,7.39,0,0,0,0,62.78V69.5A2.58,2.58,0,0,0,2.59,72.08Z"/><path class="cls-2" d="M79.56,26.79V14.06A14.07,14.07,0,0,0,65.5,0H62.75A14.07,14.07,0,0,0,48.69,14.06V26.79a8.34,8.34,0,0,0,2.56,6v9.8A102.49,102.49,0,0,0,33.74,54a8.69,8.69,0,0,0-3.19,6.77V69.5a2.58,2.58,0,0,0,2.59,2.59H95.08a2.58,2.58,0,0,0,2.59-2.59V60.77A8.69,8.69,0,0,0,94.48,54,104.17,104.17,0,0,0,77,42.6V32.8A8.22,8.22,0,0,0,79.56,26.79ZM91.21,58a3.56,3.56,0,0,1,1.31,2.77v6.14H35.75V60.77A3.56,3.56,0,0,1,37.06,58,97.93,97.93,0,0,1,54.68,46.68a3.19,3.19,0,0,0,1.78-2.82V31.57a2.59,2.59,0,0,0-1.15-2.14,3.15,3.15,0,0,1-1.41-2.61V14.09A8.9,8.9,0,0,1,62.78,5.2h2.74a8.9,8.9,0,0,1,8.89,8.89V26.82A3.11,3.11,0,0,1,73,29.43a2.53,2.53,0,0,0-1.15,2.14V43.86a3.16,3.16,0,0,0,1.78,2.82A100.73,100.73,0,0,1,91.21,58Z"/></g></g></svg>