<svg xmlns="http://www.w3.org/2000/svg" viewBox="0 0 127.75 127.75"><defs><style>.cls-1{fill:none;}.cls-2{fill:#ccc;}.cls-3{fill:#007d00;}.cls-4{fill:#045b04;}.cls-5{fill:#036;}</style></defs><title>Accounting</title><g id="Layer_2" data-name="Layer 2"><g id="Layer_1-2" data-name="Layer 1"><path class="cls-1" d="M110.68,71.41A54.33,54.33,0,1,1,56.35,17.08,54.33,54.33,0,0,1,110.68,71.41Z"/><path class="cls-2" d="M110.68,71.41a54.59,54.59,0,0,1-1,10.51H56.6A10.76,10.76,0,0,1,45.84,71.16V18.1a54.36,54.36,0,0,1,64.84,53.31Z"/><path class="cls-3" d="M63.2,2a69.44,69.44,0,0,1,62.52,62.52,6,6,0,0,1-6,6.6H59.62a3,3,0,0,1-3-3V8.06A6,6,0,0,1,63.2,2Z"/><path class="cls-4" d="M110.67,71.16H59.62a3,3,0,0,1-3-3V17.08A54.33,54.33,0,0,1,110.67,71.16Z"/><path class="cls-5" d="M112.15,63.6a2,2,0,0,1-1.72,2.28l-.28,0a2,2,0,0,1-2-1.74A52.42,52.42,0,0,0,63.6,19.6a2,2,0,0,1,.55-4A56.47,56.47,0,0,1,112.15,63.6Zm13.5,6.94a8.08,8.08,0,0,1-6,2.63h-7A56.35,56.35,0,1,1,54.58,15.09v-7a8.05,8.05,0,0,1,8.8-8,71.42,71.42,0,0,1,64.33,64.33A8.06,8.06,0,0,1,125.66,70.54Zm-17,2.63h-49a5,5,0,0,1-5-5v-49a52.31,52.31,0,1,0,54,54Zm15.07-8.42A67.38,67.38,0,0,0,63,4.05l-.39,0a4,4,0,0,0-4,4V68.14a1,1,0,0,0,1,1H119.7a4,4,0,0,0,4-4.39Z"/></g></g></svg>