<svg xmlns="http://www.w3.org/2000/svg" viewBox="0 0 110.83 121.74"><defs><style>.cls-1,.cls-3{fill:#fff;}.cls-1{stroke:#036;stroke-miterlimit:10;stroke-width:5px;}.cls-2{fill:#007d00;}</style></defs><title>Add account</title><g id="Layer_2" data-name="Layer 2"><g id="Layer_1-2" data-name="Layer 1"><path class="cls-1" d="M35,118.25l-24-34.79a2.25,2.25,0,0,1,.57-3.14L80.75,32.47a2.25,2.25,0,0,1,3.14.57l24,34.79a2.25,2.25,0,0,1-.57,3.14L38.11,118.82A2.2,2.2,0,0,1,35,118.25Z"/><path class="cls-2" d="M66.93,86.56a13.2,13.2,0,1,0-18.37-3.35A13.2,13.2,0,0,0,66.93,86.56Z"/><path class="cls-2" d="M71.06,53.57a.79.79,0,0,0,1.08.2l6.57-4.54L91,67l-6.57,4.54a.77.77,0,0,0,.88,1.27l7.21-5a.79.79,0,0,0,.2-1.08L79.54,47.71a.79.79,0,0,0-1.08-.2l-7.21,5A.79.79,0,0,0,71.06,53.57Z"/><path class="cls-2" d="M25,85.43,38.14,104.5a.79.79,0,0,0,1.08.2l7.21-5a.77.77,0,0,0-.88-1.27L39,103l-12.3-17.8,6.57-4.54a.77.77,0,1,0-.88-1.27l-7.21,5A.79.79,0,0,0,25,85.43Z"/><path class="cls-2" d="M80.4,63.61a2,2,0,1,0-2.75-.5A2,2,0,0,0,80.4,63.61Z"/><path class="cls-2" d="M37.27,88.6a2,2,0,1,0,2.75.5A1.94,1.94,0,0,0,37.27,88.6Z"/><path d="M58.33,77.26q2.79,4-.59,6.37a3.28,3.28,0,0,1-2.55.62A3.38,3.38,0,0,1,53,82.74a5,5,0,0,1-.71-1.43q-.26-.9.19-1.2a.54.54,0,0,1,.85.14,4.86,4.86,0,0,1,.38.71,4.76,4.76,0,0,0,.37.71,1.64,1.64,0,0,0,1.29.77A2.3,2.3,0,0,0,56.85,82q2.1-1.45.34-3.82l-3.35-4.48a1.4,1.4,0,0,1-.29-.79.76.76,0,0,1,.33-.72q.63-.43,1.3.54Z"/><path d="M62.17,72.35a.69.69,0,0,0-.31.5.82.82,0,0,0,.15.58,3,3,0,0,0,.49.51,3.14,3.14,0,0,1,.49.51q.47.68-.5,1.36l-.23.16-.3.2q-1,.71-1.9-.56L57,71.2q-.61-.88-1.28-.42a.7.7,0,0,0-.32.64,1.22,1.22,0,0,0,.27.7l3,4.06a7.63,7.63,0,0,0,1.79,1.9,2.1,2.1,0,0,0,2.38-.29l.06,0,.37-.26.14-.1a2.76,2.76,0,0,0,1.27-1.82,2.92,2.92,0,0,0-.59-2.17Q63,71.77,62.17,72.35Z"/><path d="M63.65,79.81a.64.64,0,0,1,.11.48.61.61,0,0,1-.27.42.62.62,0,0,1-.48.1.63.63,0,0,1-.42-.27.61.61,0,0,1-.1-.48.63.63,0,0,1,.27-.41.64.64,0,0,1,.89.16Z"/><path d="M64.93,78.92a.63.63,0,0,1,.11.49.62.62,0,0,1-.27.42.61.61,0,0,1-.48.1.64.64,0,0,1-.41-.27.64.64,0,0,1,.16-.89.63.63,0,0,1,.48-.11A.61.61,0,0,1,64.93,78.92Z"/><path d="M67,70.76q.2.24.36.48A5.55,5.55,0,0,1,68.4,75a6.51,6.51,0,0,1-1.58,3.59,1.35,1.35,0,0,1-.27.25.67.67,0,0,1-1.06-.14,1,1,0,0,1,.07-1.17,8.28,8.28,0,0,0,1.19-2.72,3.18,3.18,0,0,0-.64-2.31l-.29-.38-.29-.38q-.74-1.07-.09-1.52T67,70.76Z"/><path class="cls-1" d="M22.46,98.49,11,57.78A2.25,2.25,0,0,1,12.59,55l81-22.76A2.25,2.25,0,0,1,96.4,33.8l11.44,40.71a2.25,2.25,0,0,1-1.56,2.78l-81,22.76A2.2,2.2,0,0,1,22.46,98.49Z"/><path class="cls-2" d="M63,78.91a13.2,13.2,0,1,0-16.28-9.14A13.2,13.2,0,0,0,63,78.91Z"/><path class="cls-2" d="M77.6,49a.79.79,0,0,0,1,.54l7.69-2.16L92.1,68.25l-7.69,2.16a.77.77,0,0,0,.42,1.49l8.43-2.37a.79.79,0,0,0,.54-1L87.52,46.26a.79.79,0,0,0-1-.54l-8.43,2.37A.79.79,0,0,0,77.6,49Z"/><path class="cls-2" d="M23.65,64.2l6.27,22.32a.79.79,0,0,0,1,.54l8.43-2.37a.77.77,0,0,0-.42-1.49L31.2,85.36,25.35,64.52,33,62.36a.77.77,0,1,0-.42-1.49l-8.43,2.37A.79.79,0,0,0,23.65,64.2Z"/><path class="cls-2" d="M83.18,61.57a2,2,0,1,0-2.44-1.37A2,2,0,0,0,83.18,61.57Z"/><path class="cls-2" d="M34.27,71.2a2,2,0,1,0,2.44,1.37A1.94,1.94,0,0,0,34.27,71.2Z"/><path d="M57.86,67.31q1.33,4.72-2.63,5.84a3.28,3.28,0,0,1-2.62-.25,3.38,3.38,0,0,1-1.56-2.13,5,5,0,0,1-.2-1.58q0-.93.57-1.08a.54.54,0,0,1,.76.41,4.86,4.86,0,0,1,.12.79,4.76,4.76,0,0,0,.12.79,1.64,1.64,0,0,0,1,1.15,2.3,2.3,0,0,0,1.54,0q2.46-.69,1.56-3.5l-1.71-5.33a1.4,1.4,0,0,1,0-.84.76.76,0,0,1,.55-.58q.74-.21,1.05.93Z"/><path d="M63.1,63.92a.69.69,0,0,0-.45.37.82.82,0,0,0-.05.6,3,3,0,0,0,.3.64,3.14,3.14,0,0,1,.3.64q.22.8-.92,1.12l-.27.08-.35.1q-1.2.34-1.62-1.14l-1.45-5.16q-.29-1-1.07-.81a.7.7,0,0,0-.51.5,1.22,1.22,0,0,0,0,.75l1.55,4.82a7.63,7.63,0,0,0,1.07,2.37,2.1,2.1,0,0,0,2.34.5l.08,0,.44-.12.17,0a2.76,2.76,0,0,0,1.79-1.31,2.92,2.92,0,0,0,.15-2.24Q64.08,63.65,63.1,63.92Z"/><path d="M62.07,71.46a.64.64,0,0,1-.05.49.61.61,0,0,1-.39.31.62.62,0,0,1-.49-.06.63.63,0,0,1-.31-.39.61.61,0,0,1,.06-.49.63.63,0,0,1,.39-.3.64.64,0,0,1,.79.44Z"/><path d="M63.57,71a.63.63,0,0,1-.06.49.62.62,0,0,1-.39.31.61.61,0,0,1-.49-.06.64.64,0,0,1-.3-.39.64.64,0,0,1,.44-.79.63.63,0,0,1,.49.05A.61.61,0,0,1,63.57,71Z"/><path d="M68.17,64q.11.29.18.57a5.55,5.55,0,0,1-.22,3.89,6.51,6.51,0,0,1-2.66,2.88,1.35,1.35,0,0,1-.34.14q-.76.21-1-.48a1,1,0,0,1,.45-1.09,8.28,8.28,0,0,0,2-2.19,3.18,3.18,0,0,0,.15-2.39c0-.1-.08-.25-.15-.45s-.12-.35-.15-.45q-.35-1.26.41-1.47T68.17,64Z"/><path class="cls-1" d="M19.25,76V33.72a2.25,2.25,0,0,1,2.26-2.26h84.17a2.25,2.25,0,0,1,2.26,2.26V76a2.25,2.25,0,0,1-2.26,2.26H21.5A2.2,2.2,0,0,1,19.25,76Z"/><path class="cls-2" d="M63.55,68.11a13.2,13.2,0,1,0-13.2-13.2A13.2,13.2,0,0,0,63.55,68.11Z"/><path class="cls-2" d="M85.71,43.31a.79.79,0,0,0,.77.77h8V65.72h-8a.77.77,0,0,0,0,1.55h8.76A.79.79,0,0,0,96,66.5V43.31a.79.79,0,0,0-.77-.77H86.48A.79.79,0,0,0,85.71,43.31Z"/><path class="cls-2" d="M29.67,43.31V66.5a.79.79,0,0,0,.77.77H39.2a.77.77,0,0,0,0-1.55h-8V44.08h8a.77.77,0,1,0,0-1.55H30.44A.79.79,0,0,0,29.67,43.31Z"/><path class="cls-2" d="M87.69,56.88a2,2,0,1,0-2-2A2,2,0,0,0,87.69,56.88Z"/><path class="cls-2" d="M38,52.92a2,2,0,1,0,2,2A1.94,1.94,0,0,0,38,52.92Z"/><rect class="cls-3" x="1.44" y="1.44" width="43.32" height="43.32" rx="8.49" ry="8.49"/><path class="cls-2" d="M44.76,26.66a1.45,1.45,0,0,1-1.45-1.45V9.35a6.47,6.47,0,0,0-6.46-6.46H9.35A6.47,6.47,0,0,0,2.89,9.35v3.51a1.45,1.45,0,0,1-2.89,0V9.35A9.36,9.36,0,0,1,9.35,0H36.86a9.36,9.36,0,0,1,9.35,9.35V25.21A1.45,1.45,0,0,1,44.76,26.66Z"/><path class="cls-2" d="M36.86,46.21H9.35A9.36,9.36,0,0,1,0,36.86V21.78a1.45,1.45,0,0,1,2.89,0V36.86a6.47,6.47,0,0,0,6.46,6.46H36.86a6.47,6.47,0,0,0,6.46-6.46v-.38a1.45,1.45,0,0,1,2.89,0v.38A9.36,9.36,0,0,1,36.86,46.21Z"/><path class="cls-2" d="M35.45,24.55H10.75a1.45,1.45,0,1,1,0-2.89h24.7a1.45,1.45,0,0,1,0,2.89Z"/><path class="cls-2" d="M23.1,36.9a1.45,1.45,0,0,1-1.45-1.45V10.75a1.45,1.45,0,1,1,2.89,0v24.7A1.45,1.45,0,0,1,23.1,36.9Z"/><path class="cls-3" d="M61.76,55.56q0,4.91-4.11,4.91a3.28,3.28,0,0,1-2.45-.94,3.38,3.38,0,0,1-.92-2.47,5,5,0,0,1,.23-1.58q.3-.88.84-.88t.62.6a4.86,4.86,0,0,1-.1.8,4.76,4.76,0,0,0-.1.8,1.64,1.64,0,0,0,.62,1.37,2.3,2.3,0,0,0,1.47.45q2.56,0,2.45-2.95l-.21-5.59a1.4,1.4,0,0,1,.21-.81.76.76,0,0,1,.69-.41q.76,0,.76,1.18Z"/><path class="cls-3" d="M67.72,53.71a.69.69,0,0,0-.54.24.82.82,0,0,0-.21.56,3,3,0,0,0,.12.69,3.14,3.14,0,0,1,.12.69q0,.83-1.19.83h-.64q-1.25,0-1.25-1.54V49.83q0-1.07-.81-1.07a.7.7,0,0,0-.63.34,1.22,1.22,0,0,0-.18.73l.18,5.06a7.63,7.63,0,0,0,.39,2.57,2.1,2.1,0,0,0,2.12,1.12h.71A2.76,2.76,0,0,0,68,57.81a2.92,2.92,0,0,0,.75-2.11Q68.74,53.71,67.72,53.71Z"/><path class="cls-3" d="M64.69,60.69a.64.64,0,0,1-.19.46.61.61,0,0,1-.45.19.62.62,0,0,1-.46-.19.63.63,0,0,1-.19-.46.61.61,0,0,1,.19-.45A.63.63,0,0,1,64,60a.64.64,0,0,1,.64.64Z"/><path class="cls-3" d="M66.25,60.69a.63.63,0,0,1-.19.46.62.62,0,0,1-.46.19.61.61,0,0,1-.45-.19.64.64,0,0,1-.18-.46.64.64,0,0,1,.64-.64.63.63,0,0,1,.46.18A.61.61,0,0,1,66.25,60.69Z"/><path class="cls-3" d="M72.58,55.14q0,.31,0,.6a5.55,5.55,0,0,1-1.27,3.68A6.51,6.51,0,0,1,68,61.47a1.35,1.35,0,0,1-.37,0q-.79,0-.79-.72a1,1,0,0,1,.73-.92,8.28,8.28,0,0,0,2.52-1.56,3.18,3.18,0,0,0,.79-2.26c0-.11,0-.27,0-.48s0-.37,0-.48q0-1.31.79-1.31T72.58,55.14Z"/></g></g></svg>