<svg xmlns="http://www.w3.org/2000/svg" viewBox="0 0 127.98 100.77"><defs><style>.cls-1,.cls-2,.cls-3,.cls-4{fill:none;stroke:#036;stroke-miterlimit:10;}.cls-1{stroke-width:5px;}.cls-2{stroke-width:4px;}.cls-3{stroke-width:3px;}</style></defs><title>Cart</title><g id="Layer_2" data-name="Layer 2"><g id="Layer_1-2" data-name="Layer 1"><rect class="cls-1" x="2.5" y="58.85" width="122.98" height="14.23" rx="7.11" ry="7.11"/><polyline class="cls-2" points="62.3 56.75 62.3 58.5 10.97 58.5 10.97 23.61 62.3 23.61 62.3 36.5"/><rect class="cls-2" x="16.13" y="2" width="39.67" height="20.24"/><rect class="cls-2" x="45.8" y="36.5" width="39.67" height="20.24"/><rect class="cls-2" x="28.8" y="42.41" width="16.33" height="12.42"/><rect class="cls-2" x="28.8" y="2" width="14.17" height="6.67"/><rect class="cls-3" x="112.3" y="13.77" width="14.17" height="6.07" rx="2.46" ry="2.46"/><rect class="cls-2" x="10.97" y="29" width="9.5" height="10.5"/><rect class="cls-2" x="70.84" y="37.16" width="0.01" height="6.26" transform="translate(141.68 80.58) rotate(180)"/><rect class="cls-2" x="32.88" y="45.45" height="6.26" transform="translate(81.46 15.69) rotate(90)"/><line class="cls-1" x1="102.97" y1="56.74" x2="102.97" y2="49.67"/><line class="cls-1" x1="102.97" y1="47.17" x2="102.97" y2="26.3"/><line class="cls-2" x1="19.63" y1="87.92" x2="19.63" y2="79.05"/><line class="cls-2" x1="21.32" y1="81.03" x2="14.45" y2="81.03"/><line class="cls-1" x1="102.97" y1="23.67" x2="102.97" y2="16.8"/><line class="cls-1" x1="81.94" y1="30.24" x2="81.94" y2="14.88"/><line class="cls-1" x1="79.49" y1="28.29" x2="105.47" y2="28.29"/><line class="cls-1" x1="100.47" y1="16.8" x2="112.29" y2="16.8"/><circle class="cls-2" cx="25.19" cy="92.09" r="6.68"/><polygon class="cls-4" points="23.33 91.02 23.33 93.16 25.19 94.23 27.05 93.16 27.05 91.02 25.19 89.94 23.33 91.02"/><line class="cls-2" x1="81.94" y1="87.92" x2="81.94" y2="79.05"/><line class="cls-2" x1="83.62" y1="81.03" x2="76.76" y2="81.03"/><circle class="cls-2" cx="87.5" cy="92.09" r="6.68"/><polygon class="cls-4" points="85.64 91.02 85.64 93.16 87.5 94.23 89.36 93.16 89.36 91.02 87.5 89.94 85.64 91.02"/></g></g></svg>