<svg xmlns="http://www.w3.org/2000/svg" viewBox="0 0 50 42.85"><defs><style>.cls-1{fill:#036;}.cls-2{fill:#007d00;}</style></defs><title>Chart</title><g id="Layer_2" data-name="Layer 2"><g id="Layer_1-2" data-name="Layer 1"><rect class="cls-1" width="2.73" height="42.85"/><rect class="cls-1" x="0.98" y="40.11" width="42.85" height="2.73"/><path class="cls-1" d="M6.37,35.89a1,1,0,0,1-.71-1.65L19.87,19.33a2,2,0,0,1,2.71-.09l4.4,4a1.4,1.4,0,0,0,1.93,0L44.76,7.38a1,1,0,0,1,1.38,1.38L30.3,24.61a3.35,3.35,0,0,1-4.64.1l-4.4-4L7.07,35.59A1,1,0,0,1,6.37,35.89Z"/><path class="cls-1" d="M40,24.45a3,3,0,0,1-2.16-.89L22.95,8.67a1.12,1.12,0,0,0-1.55,0l-15,15A1,1,0,1,1,5,22.33l15-15a3,3,0,0,1,4.31,0l14.9,14.9a1.12,1.12,0,0,0,1.55,0l5.42-5.42a1,1,0,0,1,1.38,1.38l-5.42,5.42A3,3,0,0,1,40,24.45Z"/><circle class="cls-2" cx="21.1" cy="19.92" r="2.25"/><circle class="cls-2" cx="22.09" cy="7.37" r="2.25"/><circle class="cls-2" cx="6.22" cy="22.67" r="2.25"/><circle class="cls-2" cx="6.63" cy="34.3" r="2.25"/><circle class="cls-2" cx="28.13" cy="24.42" r="2.25"/><circle class="cls-2" cx="45.45" cy="8.07" r="2.25"/><circle class="cls-2" cx="47.75" cy="16.42" r="2.25"/><circle class="cls-2" cx="40.19" cy="23.34" r="2.25"/></g></g></svg>