<svg xmlns="http://www.w3.org/2000/svg" viewBox="0 0 123.44 127.76"><defs><style>.cls-1{fill:#036;}.cls-2{fill:#007d00;}.cls-3{fill:none;stroke:#036;stroke-linecap:round;stroke-miterlimit:10;stroke-width:5px;}</style></defs><title>Contract</title><g id="Layer_2" data-name="Layer 2"><g id="Layer_1-2" data-name="Layer 1"><path class="cls-1" d="M95,30.72a2.33,2.33,0,0,0-1-1.94,4.68,4.68,0,0,0-.32-.39L90,24.67,67.32,1.56l-.4-.41a2.3,2.3,0,0,0-.31-.4,2.53,2.53,0,0,0-.39-.32h0A2.42,2.42,0,0,0,64.82,0H7.5A7.5,7.5,0,0,0,0,7.5V120.26a7.5,7.5,0,0,0,7.5,7.5h80a7.5,7.5,0,0,0,7.5-7.5V36.9h0V31.7c0-.11,0-.22,0-.33A2.31,2.31,0,0,0,95,31ZM67.32,8.7h0L86.63,28.38H72.83a5.51,5.51,0,0,1-5.51-5.51ZM90,120.26a2.5,2.5,0,0,1-2.5,2.5H7.5a2.5,2.5,0,0,1-2.5-2.5V7.5A2.5,2.5,0,0,1,7.5,5H62.32V25.21a8.18,8.18,0,0,0,8.17,8.17H90Z"/><path class="cls-2" d="M35.55,111c2.38-2.75,4.66-5.52,7-8.33.61-.74,2.77-2.56,3.11-3.4q-1.83-.17-2.1,1.87l-1.85,3.34A1.51,1.51,0,0,0,44,106.28q2.18-2.6.94,0c-.57,1.6,1.95,2.65,2.74,1.16q.13-1.82.92-1.16c-.16,1.1,1,2.59,2.2,1.69,3.39-2.57,7.79-1,11.33.47,1.78.74,2.56-2.16.8-2.89-4.31-1.79-9.6-3.24-13.65-.17l2.2,1.69c.32-2.21.25-4.22-1.61-5.62a1.44,1.44,0,0,0-1.51,0,12.91,12.91,0,0,0-3.28,4.48L47.87,107c.6-1.68,1.39-4.63-.61-5.75s-4,1.65-5.34,2.86L44.27,106c.75-1.35,7.37-10.06,2.22-10.59-1.88-.19-4.16,2.88-5.11,4-2.73,3.1-5.24,6.4-8,9.52-1.26,1.45.85,3.58,2.12,2.12Z"/><line class="cls-3" x1="11.25" y1="37.16" x2="58.91" y2="37.16"/><line class="cls-3" x1="11.25" y1="63.26" x2="58.91" y2="63.26"/><line class="cls-3" x1="11.25" y1="78.83" x2="37.25" y2="78.83"/><line class="cls-3" x1="11.25" y1="50.21" x2="83.25" y2="50.21"/><path class="cls-2" d="M123.44,60.69c0-.41,0-4.17-4.66-8.84s-8.44-4.63-8.86-4.61a2.25,2.25,0,0,0-1.49.66L68.76,87.77a2.28,2.28,0,0,0-.54.88l-5.53,16.72a2.25,2.25,0,0,0,2.85,2.84l16.69-5.61a2.22,2.22,0,0,0,.88-.54l39.68-39.87A2.26,2.26,0,0,0,123.44,60.69ZM73,102.14a19.79,19.79,0,0,0-2-2.29,20.1,20.1,0,0,0-2.3-2l1.66-5a16.35,16.35,0,0,1,7.64,7.6Z"/></g></g></svg>