<svg xmlns="http://www.w3.org/2000/svg" viewBox="0 0 112 126.7"><defs><style>.cls-1{fill:#fff;}.cls-1,.cls-2{stroke:#007d00;stroke-miterlimit:10;stroke-width:7px;}.cls-2{fill:none;stroke-linecap:round;}</style></defs><title>Done</title><g id="Layer_2" data-name="Layer 2"><g id="Layer_1-2" data-name="Layer 1"><path class="cls-1" d="M108.5,90.77V35.92a5,5,0,0,0-2.5-4.33L58.5,4.17a5,5,0,0,0-5,0L6,31.59a5,5,0,0,0-2.5,4.33V90.77A5,5,0,0,0,6,95.1l47.5,27.42a5,5,0,0,0,5,0L106,95.1A5,5,0,0,0,108.5,90.77Z"/><line class="cls-2" x1="34.97" y1="66.32" x2="51.47" y2="82.82"/><line class="cls-2" x1="88.59" y1="46.75" x2="51.97" y2="83.38"/></g></g></svg>