<svg xmlns="http://www.w3.org/2000/svg" viewBox="0 0 94.98 127.76"><defs><style>.cls-1{fill:#036;}.cls-2,.cls-3{fill:none;stroke-linecap:round;stroke-miterlimit:10;}.cls-2{stroke:#036;stroke-width:3px;}.cls-3{stroke:#007d00;stroke-width:5px;}</style></defs><title>Invoice</title><g id="Layer_2" data-name="Layer 2"><g id="Layer_1-2" data-name="Layer 1"><path class="cls-1" d="M95,30.72a2.33,2.33,0,0,0-1-1.94,4.67,4.67,0,0,0-.32-.39L90,24.67,67.32,1.56l-.4-.41a2.4,2.4,0,0,0-.7-.72h0A2.42,2.42,0,0,0,64.82,0H7.5A7.5,7.5,0,0,0,0,7.5V120.26a7.5,7.5,0,0,0,7.5,7.5h80a7.5,7.5,0,0,0,7.5-7.5V31.7c0-.11,0-.22,0-.33A2.32,2.32,0,0,0,95,31Zm-8.35-2.34H72.83a5.51,5.51,0,0,1-5.51-5.51V8.7ZM90,120.26a2.5,2.5,0,0,1-2.5,2.5H7.5a2.5,2.5,0,0,1-2.5-2.5V7.5A2.5,2.5,0,0,1,7.5,5H62.32V25.21a8.18,8.18,0,0,0,8.17,8.17H90Z"/><line class="cls-2" x1="57.91" y1="28.38" x2="2.41" y2="28.38"/><line class="cls-2" x1="57.99" y1="17.38" x2="36.99" y2="17.38"/><line class="cls-2" x1="78.44" y1="103.71" x2="40.94" y2="103.71"/><line class="cls-2" x1="19.94" y1="17.38" x2="8.94" y2="17.38"/><line class="cls-3" x1="29.94" y1="114.71" x2="13.44" y2="114.71"/><line class="cls-2" x1="78.44" y1="44.55" x2="67.44" y2="44.55"/><line class="cls-2" x1="56.44" y1="44.55" x2="40.44" y2="44.55"/><line class="cls-2" x1="24.44" y1="44.55" x2="13.44" y2="44.55"/><line class="cls-2" x1="78.44" y1="56.21" x2="67.44" y2="56.21"/><line class="cls-2" x1="56.44" y1="56.21" x2="40.44" y2="56.21"/><line class="cls-2" x1="24.44" y1="56.21" x2="13.44" y2="56.21"/><line class="cls-2" x1="78.44" y1="67.88" x2="67.44" y2="67.88"/><line class="cls-2" x1="56.44" y1="67.88" x2="40.44" y2="67.88"/><line class="cls-2" x1="24.44" y1="67.88" x2="13.44" y2="67.88"/><line class="cls-2" x1="78.44" y1="79.55" x2="67.44" y2="79.55"/><line class="cls-2" x1="56.44" y1="79.55" x2="40.44" y2="79.55"/><line class="cls-2" x1="24.44" y1="79.55" x2="13.44" y2="79.55"/><line class="cls-2" x1="78.44" y1="91.21" x2="67.44" y2="91.21"/><line class="cls-2" x1="56.44" y1="91.21" x2="40.44" y2="91.21"/><line class="cls-2" x1="24.44" y1="91.21" x2="13.44" y2="91.21"/></g></g></svg>