<svg xmlns="http://www.w3.org/2000/svg" viewBox="0 0 111.07 127.57"><defs><style>.cls-1{fill:#036;}.cls-2,.cls-3{fill:none;}.cls-2{stroke:#036;stroke-width:3px;}.cls-2,.cls-3,.cls-4{stroke-linecap:round;stroke-miterlimit:10;}.cls-3,.cls-4{stroke:#007d00;stroke-width:5px;}.cls-4{fill:#fff;}</style></defs><title>Invoice search</title><g id="Layer_2" data-name="Layer 2"><g id="Layer_1-2" data-name="Layer 1"><g id="Layer_2-2" data-name="Layer 2"><g id="Layer_1-2-2" data-name="Layer 1-2"><path class="cls-1" d="M94.86,30.68a2.33,2.33,0,0,0-1-1.94,4.66,4.66,0,0,0-.32-.39l-3.67-3.71L67.22,1.56l-.4-.41a2.4,2.4,0,0,0-.7-.72h0A2.42,2.42,0,0,0,64.73,0H7.49A7.49,7.49,0,0,0,0,7.49v112.6a7.49,7.49,0,0,0,7.49,7.49H87.37a7.49,7.49,0,0,0,7.49-7.49V31.32a2.32,2.32,0,0,0,0-.37Zm-8.34-2.34H72.72a5.5,5.5,0,0,1-5.5-5.5h0V8.69Zm3.35,91.75a2.5,2.5,0,0,1-2.5,2.5H7.49a2.5,2.5,0,0,1-2.5-2.5V7.49A2.5,2.5,0,0,1,7.49,5H62.23V25.17a8.17,8.17,0,0,0,8.16,8.16H89.87Z"/><line class="cls-2" x1="57.83" y1="28.34" x2="2.41" y2="28.34"/><line class="cls-2" x1="57.91" y1="17.35" x2="36.94" y2="17.35"/><line class="cls-2" x1="78.33" y1="103.56" x2="40.88" y2="103.56"/><line class="cls-2" x1="19.91" y1="17.35" x2="8.93" y2="17.35"/><line class="cls-3" x1="29.9" y1="114.54" x2="13.42" y2="114.54"/><line class="cls-2" x1="78.33" y1="44.49" x2="67.34" y2="44.49"/><line class="cls-2" x1="56.36" y1="44.49" x2="40.38" y2="44.49"/><line class="cls-2" x1="24.4" y1="44.49" x2="13.42" y2="44.49"/><line class="cls-2" x1="78.33" y1="56.13" x2="67.34" y2="56.13"/><line class="cls-2" x1="56.36" y1="56.13" x2="40.38" y2="56.13"/><line class="cls-2" x1="24.4" y1="56.13" x2="13.42" y2="56.13"/><line class="cls-2" x1="78.33" y1="67.78" x2="67.34" y2="67.78"/><line class="cls-2" x1="56.36" y1="67.78" x2="40.38" y2="67.78"/><line class="cls-2" x1="24.4" y1="67.78" x2="13.42" y2="67.78"/><line class="cls-2" x1="78.33" y1="79.43" x2="67.34" y2="79.43"/><line class="cls-2" x1="56.36" y1="79.43" x2="40.38" y2="79.43"/><line class="cls-2" x1="24.4" y1="79.43" x2="13.42" y2="79.43"/><line class="cls-2" x1="78.33" y1="91.08" x2="67.34" y2="91.08"/><line class="cls-2" x1="56.36" y1="91.08" x2="40.38" y2="91.08"/><line class="cls-2" x1="24.4" y1="91.08" x2="13.42" y2="91.08"/></g></g><circle class="cls-4" cx="78.81" cy="95.02" r="20.83"/><line class="cls-4" x1="108.57" y1="124.66" x2="93.59" y2="109.68"/></g></g></svg>