<svg xmlns="http://www.w3.org/2000/svg" viewBox="0 0 87.45 123.52"><defs><style>.cls-1,.cls-2{fill:none;stroke-miterlimit:10;stroke-width:4px;}.cls-1{stroke:#007d00;}.cls-2{stroke:#036;}</style></defs><title>Location</title><g id="Layer_2" data-name="Layer 2"><g id="Layer_1-2" data-name="Layer 1"><path class="cls-1" d="M26.76,82.6l-9.45,4.27a2,2,0,0,0-1,.95L2.21,116.92a2,2,0,0,0,2.57,2.72l15.39-6.41a2,2,0,0,1,1.49,0l21.28,8.18a2,2,0,0,0,1.45,0l20.78-8.17a2,2,0,0,1,1.49,0l16.05,6.53a2,2,0,0,0,2.57-2.69L71.49,87.39a2,2,0,0,0-1.08-1l-9.65-3.82a2,2,0,0,0-.74-.14H27.58A2,2,0,0,0,26.76,82.6Z"/><path class="cls-2" d="M43.73,103.83S-35.6,4.67,43.65,2h0C121.65,5.42,43.73,103.83,43.73,103.83Z"/><circle class="cls-2" cx="43.39" cy="38.17" r="13.99"/></g></g></svg>