<svg xmlns="http://www.w3.org/2000/svg" viewBox="0 0 124 127.76"><defs><style>.cls-1{fill:#036;}.cls-2{font-size:29px;fill:#007d00;font-family:MyriadPro-Bold, Myriad Pro;font-weight:700;}</style></defs><title>Pdf</title><g id="Layer_2" data-name="Layer 2"><g id="Layer_1-2" data-name="Layer 1"><path class="cls-1" d="M34,7.5A2.5,2.5,0,0,1,36.52,5H93.69a2.6,2.6,0,0,0,2.65-2.42,2.49,2.49,0,0,0-.4-1.43,2.4,2.4,0,0,0-.7-.72h0A2.42,2.42,0,0,0,93.84,0H36.52A7.5,7.5,0,0,0,29,7.5V51.21h5Z"/><path class="cls-1" d="M122.64,28.38,119,24.67v95.59a2.5,2.5,0,0,1-2.5,2.5h-80a2.5,2.5,0,0,1-2.5-2.5V87.74H29v32.52a7.5,7.5,0,0,0,7.5,7.5h80a7.5,7.5,0,0,0,7.5-7.5V31.7A4.73,4.73,0,0,0,122.64,28.38Z"/><path class="cls-1" d="M124,30.72a2.33,2.33,0,0,0-1-1.94,4.67,4.67,0,0,0-.32-.39L119,24.67,96.34,1.56l-.4-.41a2.4,2.4,0,0,0-.7-.72h0a2.33,2.33,0,0,0-.65-.31A2.51,2.51,0,0,0,93.84,0h-6l3.53,3.6V25.21a8.18,8.18,0,0,0,8.17,8.17h21L124,36.9V31.7c0-.11,0-.22,0-.33a2.32,2.32,0,0,0,0-.32Zm-22.15-2.34a5.51,5.51,0,0,1-5.51-5.51V8.7l19.31,19.68Z"/><path class="cls-1" d="M74.5,46.21H7.5A7.51,7.51,0,0,0,0,53.71V85.24a7.5,7.5,0,0,0,7.5,7.5h67a7.5,7.5,0,0,0,7.5-7.5V53.71A7.51,7.51,0,0,0,74.5,46.21Zm2.5,39a2.5,2.5,0,0,1-2.5,2.5H7.5A2.5,2.5,0,0,1,5,85.24V53.71a2.51,2.51,0,0,1,2.5-2.5h67a2.51,2.51,0,0,1,2.5,2.5Z"/><text class="cls-2" transform="translate(15.13 78.26)">PDF</text></g></g></svg>