<svg xmlns="http://www.w3.org/2000/svg" viewBox="0 0 123.31 106.41"><defs><style>.cls-1,.cls-2,.cls-4{fill:none;}.cls-1{stroke:#007d00;stroke-linecap:round;}.cls-1,.cls-2{stroke-miterlimit:10;stroke-width:5px;}.cls-2{stroke:#036;}.cls-3{fill:#007d00;}</style></defs><title>Phone Hover</title><g id="Layer_2" data-name="Layer 2"><g id="Layer_1-2" data-name="Layer 1"><path class="cls-1" d="M64.79,55.38a15.73,15.73,0,0,0-3-.29A16.09,16.09,0,1,0,77.66,73.55"/><path class="cls-2" d="M77.2,44.58V40.24c0-2-2.24-3.66-5-3.66H51.12c-2.76,0-5,1.64-5,3.66v4.34c0,2-2.24,3.66-5,3.66H22.46c-2.33,0-4.36,1.19-4.87,2.85l-15,48.34c-.71,2.29,1.67,4.48,4.87,4.48H115.82c3.2,0,5.58-2.18,4.87-4.48l-15-48.34c-.51-1.66-2.54-2.85-4.87-2.85H82.2C79.43,48.24,77.2,46.6,77.2,44.58Z"/><path class="cls-3" d="M112,22.3c0-.71-.07-1.4-.09-2.06-.12-5.11-5.62-10.47-14.72-14.33C87.49,1.79,74.64-.29,61,0s-26.32,3-35.83,7.6a35.88,35.88,0,0,0-10.29,7c-2.51,2.63-3.8,5.38-3.74,8,0,.6,0,1.22,0,1.86v.23c0,4.62,0,9.86,3.75,13.17,2,1.74,4.66,2.6,8.14,2.6a27.26,27.26,0,0,0,3.48-.25c15.44-2,15.24-8.58,15-15.48l0-1.21c0-.74,1.58-1.87,5.19-2.73a75.51,75.51,0,0,1,14.76-1.47c19.5-.47,20.13,3.21,20.13,3.24l0,1.2c.11,6.91.22,13.45,15.74,14.76,5.27.45,9-.5,11.51-2.9C112.5,32.14,112.23,26.7,112,22.3Zm-6.26,9.85-.12.12c-1.43,1.37-4.07,1.91-7.84,1.6-11.29-1-11.33-4-11.43-10.16l0-1.22c-.15-5.84-7.84-8.26-24.95-7.84a79,79,0,0,0-15.73,1.6c-5.93,1.4-8.9,3.9-8.81,7.43l0,1.23c.19,6.11.29,9.18-10.94,10.67-3.75.5-6.4.09-7.89-1.22-2.16-1.89-2.15-6-2.15-9.62,0-.76,0-1.5,0-2.21-.07-3.07,4.49-7.35,11.36-10.66,8.92-4.29,21-6.83,33.9-7.14l2.64,0c12,0,23.08,1.95,31.57,5.55,7,3,11.79,7,11.86,10.1,0,.7,0,1.43.09,2.21C107.49,26.1,107.69,30.11,105.76,32.15Z"/><path class="cls-4" d="M105.76,32.15l-.12.12c-1.43,1.37-4.07,1.91-7.84,1.6-11.29-1-11.33-4-11.43-10.16l0-1.22c-.15-5.84-7.84-8.26-24.95-7.84a79,79,0,0,0-15.73,1.6c-5.93,1.4-8.9,3.9-8.81,7.43l0,1.23c.19,6.11.29,9.18-10.94,10.67-3.75.5-6.4.09-7.89-1.22-2.16-1.89-2.15-6-2.15-9.62,0-.76,0-1.5,0-2.21-.07-3.07,4.49-7.35,11.36-10.66,8.92-4.29,21-6.83,33.9-7.14l2.64,0c12,0,23.08,1.95,31.57,5.55,7,3,11.79,7,11.86,10.1,0,.7,0,1.43.09,2.21C107.49,26.1,107.69,30.11,105.76,32.15Z"/></g></g></svg>