<svg xmlns="http://www.w3.org/2000/svg" viewBox="0 0 123.31 106.41"><defs><style>.cls-1,.cls-2{fill:none;stroke:#036;stroke-miterlimit:10;stroke-width:5px;}.cls-1{stroke-linecap:round;}.cls-3{fill:#036;}</style></defs><title>Phone</title><g id="Layer_2" data-name="Layer 2"><g id="Layer_1-2" data-name="Layer 1"><path class="cls-1" d="M64.79,55.38a15.73,15.73,0,0,0-3-.29A16.09,16.09,0,1,0,77.66,73.55"/><path class="cls-2" d="M77.2,44.58V40.25c0-2-2.24-3.66-5-3.66H51.12c-2.76,0-5,1.64-5,3.66v4.34c0,2-2.24,3.66-5,3.66H22.46c-2.33,0-4.36,1.19-4.87,2.85l-15,48.34c-.71,2.29,1.67,4.48,4.87,4.48H115.82c3.2,0,5.58-2.18,4.87-4.48l-15-48.34c-.51-1.66-2.54-2.85-4.87-2.85H82.2C79.43,48.25,77.2,46.61,77.2,44.58Z"/><path class="cls-3" d="M112,22.31c0-.71-.07-1.4-.09-2.06-.12-5.11-5.62-10.47-14.72-14.32C87.48,1.8,74.63-.29,61,0s-26.32,3-35.83,7.61a35.75,35.75,0,0,0-10.29,7c-2.51,2.63-3.8,5.38-3.74,8,0,.6,0,1.22,0,1.86v.23c0,4.62,0,9.86,3.75,13.17,2,1.74,4.66,2.59,8.15,2.59a26.44,26.44,0,0,0,3.48-.25c15.44-2.05,15.24-8.58,15-15.48l0-1.21c0-.74,1.58-1.88,5.19-2.73a75.63,75.63,0,0,1,14.76-1.48C81,18.89,81.63,22.57,81.64,22.6l0,1.19c.11,6.92.22,13.45,15.74,14.76,5.27.44,9-.5,11.51-2.9C112.5,32.15,112.23,26.71,112,22.31ZM97.8,33.87c-11.29-1-11.34-4-11.43-10.15l0-1.22c-.15-5.84-7.84-8.27-24.95-7.85a79.93,79.93,0,0,0-15.74,1.6c-5.93,1.41-8.89,3.91-8.81,7.43l0,1.24C37.08,31,37.17,34.1,26,35.58c-3.75.5-6.41.09-7.9-1.22-2.16-1.89-2.15-6-2.14-9.62,0-.76,0-1.5,0-2.21-.07-3.07,4.49-7.35,11.36-10.65,8.92-4.3,21-6.83,33.9-7.14q1.33,0,2.65,0c11.94,0,23.07,1.95,31.57,5.55,7,3,11.78,7,11.85,10.1,0,.7.05,1.43.09,2.21.18,3.54.37,7.55-1.56,9.58l-.12.12C104.21,33.65,101.57,34.18,97.8,33.87Z"/></g></g></svg>