<svg xmlns="http://www.w3.org/2000/svg" viewBox="0 0 128.03 110.5"><defs><style>.cls-1,.cls-2{fill:none;}.cls-1,.cls-2,.cls-4{stroke:#036;stroke-width:5px;}.cls-1,.cls-2,.cls-4,.cls-5{stroke-miterlimit:10;}.cls-2,.cls-5{stroke-linecap:round;}.cls-3{fill:#007d00;}.cls-4,.cls-5{fill:#fff;}.cls-5{stroke:#007d00;stroke-width:3px;}</style></defs><title>Print</title><g id="Layer_2" data-name="Layer 2"><g id="Layer_1-2" data-name="Layer 1"><rect class="cls-1" x="2.5" y="27.02" width="123.03" height="55.47" rx="5" ry="5"/><path class="cls-1" d="M25.62,27H102.4a0,0,0,0,1,0,0v8.73a5,5,0,0,1-5,5H30.62a5,5,0,0,1-5-5V27A0,0,0,0,1,25.62,27Z"/><line class="cls-2" x1="30.89" y1="69.75" x2="97.14" y2="69.75"/><circle class="cls-3" cx="16.03" cy="52.25" r="4.87"/><path class="cls-4" d="M43,2.5H84.78a5,5,0,0,1,5,5V40.75a0,0,0,0,1,0,0H38a0,0,0,0,1,0,0V7.5A5,5,0,0,1,43,2.5Z"/><path class="cls-4" d="M43,69.75H84.78a5,5,0,0,1,5,5V108a0,0,0,0,1,0,0H38a0,0,0,0,1,0,0V74.75A5,5,0,0,1,43,69.75Z" transform="translate(127.81 177.75) rotate(180)"/><line class="cls-5" x1="44.86" y1="78.25" x2="65.36" y2="78.25"/><line class="cls-5" x1="44.86" y1="100.92" x2="55.86" y2="100.92"/><line class="cls-5" x1="44.86" y1="94.25" x2="72.7" y2="94.25"/><line class="cls-5" x1="44.86" y1="86.75" x2="79.03" y2="86.75"/></g></g></svg>