<svg xmlns="http://www.w3.org/2000/svg" viewBox="0 0 127.98 88.5"><defs><style>.cls-1,.cls-2,.cls-3,.cls-4{fill:none;stroke:#036;stroke-miterlimit:10;}.cls-1{stroke-width:5px;}.cls-2{stroke-width:3px;}.cls-3{stroke-width:4px;}</style></defs><title>Products</title><g id="Layer_2" data-name="Layer 2"><g id="Layer_1-2" data-name="Layer 1"><rect class="cls-1" x="2.5" y="46.76" width="122.98" height="14.23" rx="7.11" ry="7.11"/><rect class="cls-2" x="112.3" y="1.5" width="14.17" height="6.07" rx="2.46" ry="2.46"/><line class="cls-1" x1="102.97" y1="44.48" x2="102.97" y2="37.4"/><line class="cls-1" x1="102.97" y1="34.9" x2="102.97" y2="14.03"/><line class="cls-3" x1="19.63" y1="75.65" x2="19.63" y2="66.78"/><line class="cls-3" x1="21.32" y1="68.77" x2="14.45" y2="68.77"/><line class="cls-1" x1="102.97" y1="11.4" x2="102.97" y2="4.53"/><line class="cls-1" x1="81.94" y1="17.97" x2="81.94" y2="2.61"/><line class="cls-1" x1="79.49" y1="16.02" x2="105.47" y2="16.02"/><line class="cls-1" x1="100.47" y1="4.53" x2="112.29" y2="4.53"/><circle class="cls-3" cx="25.19" cy="79.82" r="6.68"/><polygon class="cls-4" points="23.33 78.75 23.33 80.89 25.19 81.97 27.05 80.89 27.05 78.75 25.19 77.68 23.33 78.75"/><line class="cls-3" x1="81.94" y1="75.65" x2="81.94" y2="66.78"/><line class="cls-3" x1="83.62" y1="68.77" x2="76.76" y2="68.77"/><circle class="cls-3" cx="87.5" cy="79.82" r="6.68"/><polygon class="cls-4" points="85.64 78.75 85.64 80.89 87.5 81.97 89.36 80.89 89.36 78.75 87.5 77.68 85.64 78.75"/></g></g></svg>