<svg xmlns="http://www.w3.org/2000/svg" viewBox="0 0 94.98 127.76"><defs><style>.cls-1{fill:#036;}.cls-2,.cls-3{fill:none;stroke-linecap:round;stroke-miterlimit:10;stroke-width:5px;}.cls-2{stroke:#036;}.cls-3{stroke:#007d00;}</style></defs><title>Rules</title><g id="Layer_2" data-name="Layer 2"><g id="Layer_1-2" data-name="Layer 1"><path class="cls-1" d="M95,30.72a2.33,2.33,0,0,0-1-1.94,4.67,4.67,0,0,0-.32-.39L90,24.67,67.32,1.56l-.4-.41a2.4,2.4,0,0,0-.7-.72h0A2.42,2.42,0,0,0,64.82,0H7.5A7.5,7.5,0,0,0,0,7.5V120.26a7.5,7.5,0,0,0,7.5,7.5h80a7.5,7.5,0,0,0,7.5-7.5V31.7c0-.11,0-.22,0-.33A2.32,2.32,0,0,0,95,31Zm-8.35-2.34H72.83a5.51,5.51,0,0,1-5.51-5.51V8.7ZM90,120.26a2.5,2.5,0,0,1-2.5,2.5H7.5a2.5,2.5,0,0,1-2.5-2.5V7.5A2.5,2.5,0,0,1,7.5,5H62.32V25.21a8.18,8.18,0,0,0,8.17,8.17H90Z"/><line class="cls-2" x1="11.49" y1="40.63" x2="59.16" y2="40.63"/><line class="cls-2" x1="11.49" y1="66.73" x2="59.16" y2="66.73"/><line class="cls-2" x1="11.49" y1="82.3" x2="37.49" y2="82.3"/><line class="cls-2" x1="11.49" y1="53.68" x2="83.49" y2="53.68"/><line class="cls-3" x1="43.24" y1="104.88" x2="56.24" y2="112.88"/><line class="cls-3" x1="81.24" y1="96.21" x2="56.24" y2="112.88"/></g></g></svg>