<svg xmlns="http://www.w3.org/2000/svg" viewBox="0 0 117.92 107.18"><defs><style>.cls-1,.cls-2,.cls-3{fill:none;stroke:#036;stroke-miterlimit:10;}.cls-1,.cls-3{stroke-width:5px;}.cls-3{stroke-linecap:round;}</style></defs><title>Telegram</title><g id="Layer_2" data-name="Layer 2"><g id="Layer_1-2" data-name="Layer 1"><path class="cls-1" d="M112.63,2.67,3.73,48.17a2,2,0,0,0,.09,3.73L33.3,62.49a2,2,0,0,1,1.25,1.34L43,94.1a2,2,0,0,0,3.08,1.09L61.74,84.09a2,2,0,0,0,0-3.25L49.47,72a2,2,0,0,1-.22-3.07L114.79,6A2,2,0,0,0,112.63,2.67Z"/><path class="cls-2" d="M64,82.47"/><path class="cls-3" d="M115.38,4.18l-14.89,97.95a3,3,0,0,1-4.66,2L61.17,80.52"/></g></g></svg>