<svg xmlns="http://www.w3.org/2000/svg" viewBox="0 0 97.77 127.5"><defs><style>.cls-1{fill:#3c92ca;}.cls-2{fill:#036;}.cls-3{fill:#007d00;}</style></defs><title>User</title><g id="Layer_2" data-name="Layer 2"><g id="Layer_1-2" data-name="Layer 1"><path class="cls-1" d="M52.87,74.58H44.61l-2,45.06,6.07,5.49,6.17-5.57ZM48.73,122l-3.67-3.31L46.8,78.07a8.19,8.19,0,0,0,2.11.26,7.74,7.74,0,0,0,1.74-.19l1.83,40.38Z"/><path class="cls-2" d="M2.42,105.22a2.38,2.38,0,0,0,2.37-2.37V89.73a6.87,6.87,0,0,1,2.5-5.34A149.61,149.61,0,0,1,34,67.21a3.17,3.17,0,0,0,1.8-2.89V45.87a2.33,2.33,0,0,0-1-2A6.3,6.3,0,0,1,32,38.71V19.6A14.88,14.88,0,0,1,46.86,4.74H51A14.88,14.88,0,0,1,65.83,19.6V38.74A6.2,6.2,0,0,1,63,43.94a2.36,2.36,0,0,0-1,2V64.35a3.21,3.21,0,0,0,1.8,2.89A147.08,147.08,0,0,1,90.54,84.42,6.87,6.87,0,0,1,93,89.76v13.12a2.37,2.37,0,0,0,4.74,0V89.76a11.55,11.55,0,0,0-4.24-9A153.62,153.62,0,0,0,66.69,63.44V47.09a11,11,0,0,0,3.85-8.36V19.6A19.63,19.63,0,0,0,50.94,0H46.83a19.63,19.63,0,0,0-19.6,19.6V38.74a11,11,0,0,0,3.85,8.36V63.44A153.62,153.62,0,0,0,4.24,80.78a11.63,11.63,0,0,0-4.24,9v13.12A2.47,2.47,0,0,0,2.42,105.22Z"/><path class="cls-2" d="M57.6,69.68a2.34,2.34,0,0,0-2.34-2.39,2.38,2.38,0,0,0-2.37,2.37,3.92,3.92,0,0,1-1.3,2.94,1.88,1.88,0,0,0-.44.36,3.83,3.83,0,0,1-2.24.68,4,4,0,0,1-4-4,2.37,2.37,0,0,0-4.74,0,8.74,8.74,0,0,0,2,5.52l-1.93,44.38a2.37,2.37,0,0,0,.78,1.85l6.07,5.49a2.25,2.25,0,0,0,1.58.6,2.4,2.4,0,0,0,1.59-.6l6.17-5.57a2.35,2.35,0,0,0,.78-1.85l-2-43.86A8.68,8.68,0,0,0,57.6,69.68ZM46.8,78.07a8.19,8.19,0,0,0,2.11.26,7.74,7.74,0,0,0,1.74-.19l1.83,40.38L48.73,122l-3.67-3.31Z"/><path class="cls-3" d="M52.48,118.52,48.73,122l-3.67-3.31L46.8,78.07a8.19,8.19,0,0,0,2.11.26,7.74,7.74,0,0,0,1.74-.19Z"/></g></g></svg>